<svg width="258" height="31" viewBox="0 0 258 31" fill="none" xmlns="http://www.w3.org/2000/svg">
<path fill-rule="evenodd" clip-rule="evenodd" d="M28.6699 10.23V14.35H39.9199L28.6699 30.73H47.4399V26.65H36.1799L47.4399 10.23H28.6699Z" fill="#46166B"/>
<path fill-rule="evenodd" clip-rule="evenodd" d="M129.57 8.09999C130.3 8.09999 130.89 7.78999 131.39 7.23999C131.92 6.68999 132.18 5.99999 132.18 5.20999C132.18 4.41999 131.91 3.76999 131.39 3.21999C130.89 2.63999 130.3 2.35999 129.57 2.35999C128.84 2.35999 128.21 2.63999 127.72 3.21999C127.19 3.76999 126.93 4.41999 126.93 5.20999C126.93 5.99999 127.2 6.68999 127.72 7.23999C128.21 7.79999 128.84 8.09999 129.57 8.09999Z" fill="#46166B"/>
<path fill-rule="evenodd" clip-rule="evenodd" d="M119.64 8.09999C120.37 8.09999 120.96 7.78999 121.46 7.23999C121.99 6.68999 122.25 5.99999 122.25 5.20999C122.25 4.41999 121.99 3.76999 121.46 3.21999C120.96 2.63999 120.37 2.35999 119.64 2.35999C118.91 2.35999 118.28 2.63999 117.79 3.21999C117.26 3.76999 117.03 4.41999 117.03 5.20999C117.03 5.99999 117.26 6.68999 117.79 7.23999C118.28 7.79999 118.91 8.09999 119.64 8.09999Z" fill="#46166B"/>
<path fill-rule="evenodd" clip-rule="evenodd" d="M0 30.73H4.1L7.44 22.52H18.8L22.11 30.73H26.28L13.11 0L0 30.73ZM9.14 18.44L13.11 8.58L17.12 18.44H9.14Z" fill="#46166B"/>
<path fill-rule="evenodd" clip-rule="evenodd" d="M91.3 4.09H100.67V30.73H104.41V4.09H113.78V0H91.3V4.09Z" fill="#46166B"/>
<path fill-rule="evenodd" clip-rule="evenodd" d="M130.2 26.65H124.61C123.05 26.65 121.73 26.03 120.64 24.83C119.51 23.63 118.95 22.19 118.95 20.5V10.23H115.21V20.5C115.21 23.32 116.14 25.72 117.96 27.75C119.81 29.74 122 30.74 124.61 30.74H133.98V10.24H130.21V26.65H130.2Z" fill="#46166B"/>
<path fill-rule="evenodd" clip-rule="evenodd" d="M74.6099 13.26C72.7899 15.25 71.8899 17.65 71.8899 20.51V30.74H75.6299V20.5C75.6299 18.78 76.1899 17.34 77.2899 16.14C78.3799 14.94 79.7099 14.35 81.2599 14.35H84.9999V10.23H81.2599C78.6799 10.23 76.4699 11.23 74.6099 13.26Z" fill="#46166B"/>
<path fill-rule="evenodd" clip-rule="evenodd" d="M192.57 13.77C193.22 13.13 194.76 11.6 194.59 8.21C194.51 6.7 194.24 5.33 193.59 4.11C193.58 4.09 193.58 4.08 193.57 4.06H193.56C193.23 3.47 192.84 2.92 192.37 2.4C190.91 0.79 189.13 0 187.07 0H179.56H175.82V30.73H179.56H187.07H188.03C190.35 30.73 192.33 29.84 193.96 28.02C195.62 26.23 196.44 24.04 196.44 21.49C196.45 18.13 195.16 15.56 192.57 13.77ZM179.56 4.12H187.07C188.1 4.12 188.99 4.5 189.72 5.29C190.45 6.11 190.81 7.08 190.81 8.21C190.81 9.34 190.45 10.3 189.72 11.09C188.99 11.88 188.1 12.29 187.07 12.29H179.56V4.12ZM191.32 25.14C190.43 26.14 189.3 26.62 188.04 26.62H179.57V16.38H187.81H188.04C189.3 16.38 190.42 16.86 191.32 17.89C192.25 18.89 192.71 20.09 192.71 21.5C192.71 22.9 192.24 24.14 191.32 25.14Z" fill="#46166B"/>
<path fill-rule="evenodd" clip-rule="evenodd" d="M230.11 10.23C227.53 10.23 225.31 11.23 223.46 13.25C221.64 15.24 220.75 17.64 220.75 20.49V30.72H224.49V20.5C224.49 18.78 225.02 17.34 226.15 16.14C227.24 14.94 228.57 14.36 230.12 14.36C231.68 14.36 233 14.94 234.09 16.14C235.18 17.34 235.74 18.78 235.74 20.5V30.73H239.48V20.5C239.48 17.65 238.59 15.25 236.73 13.26C234.91 11.23 232.69 10.23 230.11 10.23Z" fill="#46166B"/>
<path fill-rule="evenodd" clip-rule="evenodd" d="M163.04 10.23L156.65 18.44V0H152.9V30.73H156.65L156.63 23.96L162.67 30.73H167.9L159.26 21.26L167.9 10.23H163.04Z" fill="#46166B"/>
<path fill-rule="evenodd" clip-rule="evenodd" d="M208.26 10.23C205.68 10.23 203.46 11.23 201.64 13.25C199.82 15.24 198.89 17.65 198.89 20.5C198.89 23.32 199.82 25.72 201.64 27.75C203.46 29.74 205.68 30.74 208.26 30.74H217.66V20.5C217.66 17.65 216.73 15.25 214.88 13.25C213.06 11.23 210.88 10.23 208.26 10.23ZM213.89 26.65H208.26C206.7 26.65 205.38 26.03 204.29 24.83C203.2 23.63 202.64 22.19 202.64 20.5C202.64 18.78 203.2 17.34 204.29 16.14C205.38 14.94 206.71 14.35 208.26 14.35C209.81 14.35 211.14 14.93 212.23 16.14C213.32 17.34 213.88 18.78 213.88 20.5V26.65H213.89Z" fill="#46166B"/>
<path fill-rule="evenodd" clip-rule="evenodd" d="M139.63 13.26C137.81 15.25 136.92 17.65 136.92 20.51V30.74H140.66V20.5C140.66 18.78 141.19 17.34 142.31 16.14C143.4 14.94 144.73 14.35 146.28 14.35H150.02V10.23H146.28C143.7 10.23 141.48 11.23 139.63 13.26Z" fill="#46166B"/>
<path fill-rule="evenodd" clip-rule="evenodd" d="M59.6801 10.23H52.0301V14.32H59.6801C60.9001 14.32 62.0001 14.7 62.9901 15.49C63.9201 16.21 64.6101 17.21 64.9801 18.41L50.3101 18.44V20.47C50.3101 23.32 51.2401 25.72 53.0901 27.72C54.9101 29.75 57.0901 30.74 59.6801 30.74C62.3001 30.74 64.5101 29.74 66.3301 27.72C68.1501 25.73 69.0801 23.33 69.0801 20.47C69.0801 17.66 68.1501 15.25 66.3301 13.23C64.5201 11.23 62.3001 10.23 59.6801 10.23ZM62.9901 25.48C62.0001 26.24 60.9001 26.61 59.6801 26.61C58.4901 26.61 57.4001 26.23 56.4001 25.48C55.4401 24.73 54.7801 23.73 54.4101 22.53H64.9701C64.6201 23.73 63.9201 24.72 62.9901 25.48Z" fill="#46166B"/>
<path fill-rule="evenodd" clip-rule="evenodd" d="M252.69 10.23L246.3 18.44V0H242.56V30.73H246.3L246.28 23.96L252.32 30.73H257.55L248.91 21.26L257.55 10.23H252.69Z" fill="#46166B"/>
</svg>
