<svg width="78" height="48" viewBox="0 0 78 48" fill="none" xmlns="http://www.w3.org/2000/svg">
<path fill-rule="evenodd" clip-rule="evenodd" d="M72.245 39.84H68.169V43.04C68.169 45.76 65.9321 48 63.215 48H5.75405C3.03705 48 0.800049 45.76 0.800049 43.04V26.48V16.48V13.12C0.800049 10.4 3.03705 8.16 5.75405 8.16H9.83005V4.96C9.83005 2.24 12.068 0 14.785 0H72.245C75.042 0 77.2 2.16 77.2 4.96V34.88C77.2 37.6 74.9621 39.84 72.245 39.84ZM3.35705 43.12C3.35705 44.4 4.39605 45.52 5.75405 45.52H63.215C64.493 45.52 65.612 44.48 65.612 43.12V38.64V26.48H3.35705V43.12ZM3.35705 23.92H65.612V19.04H3.35705V23.92ZM11.109 10.72H5.75405C4.47605 10.72 3.35705 11.76 3.35705 13.12V16.48H65.532V13.12C65.532 11.84 64.493 10.72 63.135 10.72H11.109ZM74.643 4.96C74.643 3.68 73.604 2.56 72.245 2.56H14.785C13.506 2.56 12.387 3.6 12.387 4.96V8.16H63.215C65.9321 8.16 68.169 10.4 68.169 13.12V16.48V26.48V37.36H72.245C73.524 37.36 74.643 36.32 74.643 34.96V4.96ZM57.62 43.36H55.383C53.1451 43.36 51.307 41.52 51.307 39.28V38.32C51.307 36.08 53.1451 34.24 55.383 34.24H57.62C59.858 34.24 61.696 36.08 61.696 38.32V39.28C61.696 41.52 59.858 43.36 57.62 43.36ZM59.139 38.32C59.139 37.52 58.42 36.8 57.62 36.8H55.383C54.584 36.8 53.864 37.52 53.864 38.32V39.28C53.864 40.08 54.584 40.8 55.383 40.8H57.62C58.42 40.8 59.139 40.08 59.139 39.28V38.32ZM45.793 43.36H43.555C41.237 43.36 39.479 41.52 39.479 39.28V38.32C39.479 36.08 41.3171 34.24 43.555 34.24H45.793C48.03 34.24 49.868 36.08 49.868 38.32V39.28C49.868 41.52 48.03 43.36 45.793 43.36ZM47.3111 38.32C47.3111 37.52 46.592 36.8 45.793 36.8H43.555C42.7561 36.8 42.037 37.52 42.037 38.32V39.28C42.037 40.08 42.7561 40.8 43.555 40.8H45.793C46.592 40.8 47.3111 40.08 47.3111 39.28V38.32Z" fill="#FF3C4E"/>
</svg>
