<svg width="59" height="67" viewBox="0 0 59 67" fill="none" xmlns="http://www.w3.org/2000/svg">
<path fill-rule="evenodd" clip-rule="evenodd" d="M57.836 17.341L50.806 30.366C52.244 30.685 53.363 32.044 53.363 33.562V42.911H54.721C55.44 42.911 55.999 43.47 55.999 44.189V53.698C55.999 54.417 55.44 54.977 54.721 54.977H53.363V63.287C53.363 65.124 51.925 66.563 50.087 66.563H4.15002C2.31302 66.563 0.874023 65.124 0.874023 63.287V33.482V27.729C0.874023 25.891 2.31302 24.453 4.15002 24.453H18.53L30.354 2.47903C31.393 0.561027 34.029 -0.237973 35.946 0.801027L56.159 11.748C58.156 12.867 58.875 15.344 57.836 17.341ZM53.283 52.42H53.363V45.468H53.283H45.773C45.054 45.468 44.495 46.027 44.495 46.746V51.141C44.495 51.86 45.054 52.42 45.773 52.42H53.283ZM3.35102 63.287C3.35102 63.686 3.67102 64.006 4.07002 64.006H50.007C50.407 64.006 50.726 63.686 50.726 63.287V54.977H45.773C43.696 54.977 41.938 53.299 41.938 51.141V46.746C41.938 44.669 43.616 42.911 45.773 42.911H50.646V33.562C50.646 33.162 50.327 32.843 49.927 32.843H48.569H30.594H21.247H16.134H4.07002C3.67102 32.843 3.35102 33.162 3.35102 33.562V63.287ZM4.07002 27.01C3.67102 27.01 3.35102 27.409 3.35102 27.649V30.286C3.59102 30.206 3.83002 30.206 4.07002 30.206H15.335L17.092 27.01H4.07002ZM34.748 3.03803C34.029 2.63903 33.07 2.95803 32.671 3.67803L18.291 30.286H22.685L36.745 4.15703L34.748 3.03803ZM39.062 5.43503L25.561 30.286H29.156L41.778 6.87403L39.062 5.43503ZM54.881 14.065L44.015 8.15203L32.032 30.286H47.85L55.52 16.063C55.919 15.344 55.679 14.385 54.881 14.065ZM51.286 21.017C50.646 22.056 49.528 22.775 48.25 22.775C47.69 22.775 47.131 22.615 46.652 22.375L46.013 22.056C45.214 21.656 44.575 20.937 44.335 20.058C44.015 19.179 44.175 18.22 44.575 17.421L45.374 15.903C46.252 14.305 48.409 13.666 50.007 14.545L50.646 14.864C52.244 15.743 52.883 17.821 52.084 19.499L51.286 21.017ZM49.448 17.022L48.809 16.702C48.649 16.622 48.569 16.622 48.409 16.622C48.09 16.622 47.77 16.862 47.611 17.102L46.812 18.62C46.652 18.78 46.652 19.019 46.732 19.259C46.812 19.419 46.971 19.659 47.131 19.738L47.77 20.138C48.17 20.378 48.729 20.218 48.969 19.818L49.768 18.3C49.927 17.821 49.768 17.341 49.448 17.022Z" fill="#FF3C4E"/>
</svg>
