<svg width="72" height="62" viewBox="0 0 72 62" fill="none" xmlns="http://www.w3.org/2000/svg">
<path fill-rule="evenodd" clip-rule="evenodd" d="M70.518 56H61.949V59.92C61.949 60.64 61.388 61.2001 60.667 61.2001H50.096C49.375 61.2001 48.8139 60.64 48.8139 59.92V56H23.186V59.92C23.186 60.64 22.625 61.2001 21.9039 61.2001H11.332C10.612 61.2001 10.051 60.64 10.051 59.92V56H1.48095C0.760951 56 0.199951 55.4401 0.199951 54.7201V2.08005C0.199951 1.36005 0.760951 0.800049 1.48095 0.800049H70.518C71.239 0.800049 71.8 1.36005 71.8 2.08005V54.7201C71.8 55.4401 71.239 56 70.518 56ZM51.3769 58.5601H59.386V55.92H51.3769V58.5601ZM12.614 58.5601H20.6229V55.92H12.614V58.5601ZM69.157 3.36005H2.76295V53.44H11.332H21.9039H50.096H60.667H69.157V3.36005ZM9.81095 48.7201V44.48H7.80895C7.08795 44.48 6.52695 43.9201 6.52695 43.2001V33.84C6.52695 33.12 7.08795 32.5601 7.80895 32.5601H9.81095V24.16H7.80895C7.08795 24.16 6.52695 23.6 6.52695 22.88V13.52C6.52695 12.8 7.08795 12.24 7.80895 12.24H9.81095V8.00005C9.81095 7.28005 10.371 6.72005 11.092 6.72005H64.432C65.152 6.72005 65.713 7.28005 65.713 8.00005V48.7201C65.713 49.4401 65.152 50 64.432 50H11.092C10.371 50 9.81095 49.4401 9.81095 48.7201ZM9.08995 35.12V41.92H11.092H13.094V35.12H11.092H9.08995ZM9.08995 14.8V21.6H11.092H13.094V14.8H11.092H9.08995ZM12.374 47.44H63.15V9.28005H12.374V12.24H14.376C15.097 12.24 15.657 12.8 15.657 13.52V22.88C15.657 23.6 15.097 24.16 14.376 24.16H12.374V32.5601H14.376C15.097 32.5601 15.657 33.12 15.657 33.84V43.2001C15.657 43.9201 15.097 44.48 14.376 44.48H12.374V47.44ZM49.375 19.0401C54.5 19.0401 58.665 23.2001 58.665 28.32C58.665 33.44 54.5 37.6 49.375 37.6C44.3289 37.6 40.165 33.44 40.084 28.32C40.084 23.2001 44.249 19.0401 49.375 19.0401ZM49.375 35.12C53.059 35.12 56.102 32.08 56.102 28.4C56.102 24.72 53.059 21.68 49.375 21.68C45.6909 21.68 42.6469 24.72 42.6469 28.4C42.6469 32.08 45.6909 35.12 49.375 35.12ZM49.375 24C51.777 24 53.7 25.92 53.7 28.32C53.7 30.72 51.777 32.64 49.375 32.64C47.0519 32.64 45.13 30.72 45.0499 28.32C45.0499 25.92 46.972 24 49.375 24ZM49.375 30.16C50.3359 30.16 51.137 29.36 51.137 28.4C51.137 27.4401 50.3359 26.64 49.375 26.64C48.414 26.64 47.693 27.4401 47.6129 28.4C47.6129 29.36 48.414 30.16 49.375 30.16Z" fill="#FF3C4E"/>
</svg>
