<svg width="75" height="61" viewBox="0 0 75 61" fill="none" xmlns="http://www.w3.org/2000/svg">
<path fill-rule="evenodd" clip-rule="evenodd" d="M74.058 25.617L65.018 36.024C64.778 36.264 64.458 36.424 64.138 36.424C63.817 36.424 63.418 36.344 63.178 36.104L57.737 31.301L51.178 42.428C50.857 42.908 50.218 43.148 49.658 42.988L43.578 40.987L37.817 48.512C37.418 49.072 36.698 49.152 36.138 48.832L29.817 44.909L21.977 52.034C21.657 52.354 21.177 52.434 20.777 52.354L12.617 50.193L8.69701 54.356C8.37701 54.596 8.05701 54.756 7.73801 54.756C7.41801 54.756 7.09701 54.676 6.85701 54.436C6.29701 53.955 6.29701 53.075 6.77701 52.594L11.257 47.871C11.577 47.551 12.057 47.471 12.537 47.551L20.777 49.713L28.857 42.428C29.258 42.028 29.897 41.948 30.377 42.268L36.537 46.11L42.138 38.745C42.458 38.345 43.097 38.185 43.578 38.345L49.497 40.346L56.377 28.819C56.538 28.499 56.858 28.259 57.258 28.179C57.658 28.098 57.977 28.259 58.298 28.499L63.898 33.462L72.138 24.096C72.618 23.535 73.418 23.455 73.978 23.936C74.538 24.416 74.538 25.217 74.058 25.617ZM67.418 18.973C67.098 19.613 66.378 19.933 65.738 19.613L60.938 17.532L50.698 28.259C50.297 28.659 49.737 28.819 49.257 28.579L40.217 24.656L28.138 38.185C27.737 38.585 27.177 38.665 26.697 38.505L20.857 36.184L9.25701 42.668C9.01801 42.748 8.85701 42.828 8.61701 42.828C8.13701 42.828 7.73801 42.588 7.49701 42.268C7.09701 41.627 7.33701 40.827 7.97801 40.507L20.138 33.702C20.537 33.542 20.938 33.462 21.258 33.622L26.858 35.783L38.938 22.255C39.258 21.854 39.897 21.694 40.378 21.934L49.418 25.857L59.738 15.13C60.138 14.73 60.698 14.57 61.177 14.81L65.657 16.811L71.018 5.043C71.257 4.403 72.058 4.083 72.698 4.403C73.338 4.643 73.658 5.444 73.338 6.084L67.418 18.973ZM20.057 21.934C14.457 21.934 9.81801 17.291 9.81801 11.688C9.81801 6.004 14.378 1.441 20.057 1.441C25.738 1.441 30.298 6.084 30.298 11.688C30.298 17.371 25.657 21.934 20.057 21.934ZM20.057 4.003C15.817 4.003 12.377 7.445 12.377 11.688C12.377 15.931 15.817 19.373 20.057 19.373C24.297 19.373 27.737 15.931 27.737 11.688C27.737 7.445 24.297 4.003 20.057 4.003ZM22.858 15.21C22.778 15.45 22.697 15.61 22.538 15.77C22.457 15.931 22.298 16.091 22.137 16.251C21.977 16.411 21.738 16.571 21.577 16.651C21.337 16.731 21.177 16.811 20.938 16.891H20.857V17.932V18.252H20.537H19.577H19.257V17.932V16.891H19.177C19.017 16.891 18.777 16.811 18.618 16.811C18.378 16.731 18.217 16.731 18.058 16.651C17.897 16.571 17.737 16.571 17.578 16.491C17.417 16.411 17.337 16.331 17.177 16.251L16.937 16.171V15.931L17.097 14.73L17.177 14.249L17.578 14.49C17.657 14.49 17.657 14.57 17.977 14.73C17.977 14.73 18.058 14.81 18.137 14.81C18.217 14.89 18.378 14.89 18.538 14.97C18.697 14.97 18.858 15.05 19.017 15.05C19.177 15.13 19.257 15.13 19.418 15.13C19.577 15.13 19.658 15.13 19.817 15.13C19.898 15.13 19.977 15.13 20.057 15.13C20.138 15.13 20.218 15.13 20.297 15.13C20.377 15.13 20.537 15.05 20.617 15.05C20.777 14.97 20.857 14.97 20.938 14.89C21.018 14.89 21.097 14.81 21.177 14.73C21.258 14.65 21.258 14.57 21.337 14.49C21.337 14.41 21.417 14.329 21.417 14.249C21.417 14.169 21.417 14.009 21.417 13.929C21.417 13.849 21.337 13.689 21.337 13.609C21.258 13.529 21.258 13.449 21.177 13.369C21.177 13.289 21.097 13.209 21.018 13.129C20.938 13.049 20.857 13.049 20.777 12.969C20.698 12.889 20.617 12.889 20.537 12.808C20.377 12.808 20.297 12.728 20.218 12.728C20.057 12.648 19.817 12.568 19.658 12.488C19.497 12.408 19.257 12.328 19.098 12.248C18.937 12.168 18.777 12.008 18.618 11.928C18.457 11.848 18.298 11.768 18.137 11.608C17.977 11.448 17.818 11.368 17.737 11.207C17.578 11.047 17.498 10.887 17.417 10.727C17.337 10.567 17.258 10.327 17.258 10.167C17.177 10.007 17.177 9.766 17.177 9.606C17.177 9.366 17.177 9.126 17.258 8.886C17.258 8.646 17.337 8.486 17.417 8.245C17.498 8.005 17.657 7.845 17.737 7.685C17.818 7.525 17.977 7.365 18.137 7.205C18.298 7.045 18.457 6.885 18.618 6.805C18.777 6.725 18.937 6.644 19.177 6.564H19.257V5.524V5.204H19.577H20.537H20.857V5.524V6.484H21.018C21.097 6.484 21.177 6.564 21.337 6.564C21.417 6.564 21.577 6.644 21.657 6.644C21.738 6.644 21.818 6.725 21.897 6.725C21.977 6.725 22.058 6.805 22.137 6.805L22.377 6.885V7.125L22.217 8.245L22.137 8.646L21.738 8.486C21.657 8.486 21.577 8.406 21.498 8.406C21.417 8.406 21.337 8.326 21.258 8.326C21.097 8.326 21.018 8.245 20.857 8.245C20.777 8.245 20.617 8.245 20.537 8.245C20.458 8.245 20.377 8.245 20.297 8.245C20.218 8.245 20.138 8.245 20.057 8.245C19.898 8.245 19.737 8.326 19.658 8.326C19.497 8.406 19.418 8.406 19.338 8.486C19.257 8.566 19.177 8.646 19.098 8.726C19.017 8.806 18.937 8.886 18.937 8.966C18.937 9.046 18.858 9.206 18.858 9.286C18.858 9.366 18.858 9.526 18.858 9.606C18.858 9.766 18.937 9.847 18.937 9.927C19.017 10.007 19.017 10.087 19.098 10.167C19.177 10.167 19.257 10.247 19.338 10.327C19.418 10.407 19.497 10.407 19.577 10.487C19.737 10.567 19.817 10.567 19.898 10.647C20.057 10.647 20.138 10.727 20.218 10.727C20.377 10.807 20.617 10.887 20.777 10.967C20.938 11.047 21.177 11.127 21.337 11.207C21.498 11.287 21.657 11.448 21.818 11.528C21.977 11.688 22.137 11.768 22.298 11.928C22.457 12.088 22.618 12.168 22.697 12.328C22.778 12.488 22.858 12.648 22.937 12.808C23.017 13.049 23.098 13.209 23.098 13.369C23.177 13.529 23.177 13.769 23.177 13.929C23.177 14.169 23.177 14.329 23.098 14.57C23.017 14.81 22.937 14.97 22.858 15.21ZM69.657 59.719C69.657 60.44 69.097 61 68.378 61H2.21701C1.49701 61 0.937012 60.44 0.937012 59.719V1.281C0.937012 0.56 1.49701 0 2.21701 0C2.93801 0 3.49801 0.56 3.49801 1.281V58.438H68.378C69.097 58.438 69.657 58.999 69.657 59.719Z" fill="#FF3C4E"/>
</svg>
