<svg width="57" height="67" viewBox="0 0 57 67" fill="none" xmlns="http://www.w3.org/2000/svg">
<path fill-rule="evenodd" clip-rule="evenodd" d="M56.6399 15.2711L49.435 29.9201H49.5149C51.3559 29.9201 52.797 31.361 52.797 33.202V42.5681H54.158C54.879 42.5681 55.4389 43.128 55.4389 43.849V53.375C55.4389 54.0951 54.879 54.655 54.158 54.655H52.797V62.98C52.797 64.822 51.3559 66.2621 49.5149 66.2621H3.48195C1.64095 66.2621 0.199951 64.822 0.199951 62.98V33.1221V27.3591C0.199951 25.5181 1.64095 24.0771 3.48195 24.0771H17.893L28.94 1.58305C29.1 1.26305 29.341 1.02305 29.6609 0.943051C29.9809 0.863051 30.301 0.863051 30.622 1.02305L39.428 5.34505L47.193 9.10805L55.999 13.4301C56.159 13.5101 56.32 13.5901 56.4 13.7501C56.48 13.9111 56.5599 14.0711 56.6399 14.2311C56.72 14.3911 56.7199 14.5511 56.7999 14.7911C56.7199 14.9511 56.72 15.1111 56.6399 15.2711ZM52.797 52.0941H52.8769V45.1301H52.797H45.2719C44.5509 45.1301 43.991 45.69 43.991 46.41V50.813C43.991 51.5331 44.5509 52.0941 45.2719 52.0941H52.797ZM2.76195 62.98C2.76195 63.3811 3.08195 63.701 3.48195 63.701H49.435C49.835 63.701 50.1549 63.3811 50.1549 62.98V54.655H45.192C43.11 54.655 41.3489 52.974 41.3489 50.813V46.41C41.3489 44.329 43.03 42.5681 45.192 42.5681H50.1549V33.202C50.1549 32.802 49.835 32.482 49.435 32.482H47.353H38.387H23.096H15.891H3.48195C3.08195 32.482 2.76195 32.802 2.76195 33.202V62.98ZM36.546 29.9201C35.905 28.7201 34.945 27.7591 33.664 27.1191C32.783 26.7181 31.8219 26.4781 30.7819 26.4781C28.2999 26.4781 26.058 27.7591 24.937 29.9201H36.546ZM3.48195 26.6381C3.08195 26.6381 2.76195 26.9591 2.76195 27.2791V29.9201C3.00195 29.8401 3.24195 29.8401 3.48195 29.8401H15.011L16.6119 26.6381H3.48195ZM30.622 3.90505L27.579 10.1481C28.38 10.3881 29.261 10.5491 30.141 10.5491C32.8629 10.5491 35.4249 9.18805 37.026 7.02605L30.622 3.90505ZM39.188 8.14705C37.186 11.2691 33.7439 13.1101 29.981 13.1101C28.7 13.1101 27.499 12.8701 26.298 12.4701L17.812 29.8401H22.055C22.216 29.5201 22.2959 29.2801 22.4559 28.9601C24.0569 25.8381 27.1789 23.8371 30.702 23.8371C32.063 23.8371 33.423 24.1571 34.7039 24.7971C36.8659 25.8381 38.467 27.6791 39.268 29.9201V29.8401H46.4729L49.435 23.7571C45.192 21.0351 43.27 15.7521 44.872 10.9491L39.188 8.14705ZM47.353 12.1491C46.393 15.5921 47.754 19.4341 50.716 21.5151L53.7579 15.2711L47.353 12.1491ZM36.866 23.9971C36.305 23.9971 35.7449 23.8371 35.2649 23.5961C33.5039 22.7161 32.783 20.5551 33.664 18.7941C34.544 17.1131 36.7059 16.3121 38.4669 17.1931C40.228 17.9931 40.949 20.1541 40.068 21.9951C39.5079 23.1961 38.227 23.9971 36.866 23.9971ZM37.2659 19.4341C37.1859 19.3541 37.026 19.3541 36.866 19.3541C36.466 19.3541 36.145 19.5941 35.985 19.9141C35.7449 20.3941 35.985 21.0351 36.466 21.2751C36.9459 21.5151 37.5859 21.2751 37.827 20.7951C38.067 20.3141 37.827 19.6741 37.2659 19.4341Z" fill="#FF3C4E"/>
</svg>
