<svg width="82" height="72" viewBox="0 0 82 72" fill="none" xmlns="http://www.w3.org/2000/svg">
<path fill-rule="evenodd" clip-rule="evenodd" d="M80.52 71.65H1.47995C0.759951 71.65 0.199951 71.09 0.199951 70.37V65.09C0.199951 64.37 0.759951 63.81 1.47995 63.81H5.07995V59.81C5.07995 59.09 5.63995 58.53 6.35995 58.53H8.43995V54.61C8.43995 53.89 8.99995 53.33 9.71995 53.33H10.52V22.29H7.31995C6.59995 22.29 6.03995 21.73 6.03995 21.01C6.03995 20.29 6.59995 19.73 7.31995 19.73H11.8H18.2H37.7999H44.2H63.7999H70.2H74.68C75.4 19.73 75.96 20.29 75.96 21.01C75.96 21.73 75.4 22.29 74.68 22.29H71.48V53.33H72.28C73 53.33 73.56 53.89 73.56 54.61V58.53H75.64C76.36 58.53 76.92 59.09 76.92 59.81V63.81H80.52C81.24 63.81 81.8 64.37 81.8 65.09V70.37C81.8 71.09 81.24 71.65 80.52 71.65ZM16.92 22.29H13.16V53.33H16.92V22.29ZM19 55.89H18.2H11.8H11V58.53H19V55.89ZM36.52 22.29H19.4799V53.33H20.28C21 53.33 21.5599 53.89 21.5599 54.61V58.53H34.4399V54.61C34.4399 53.89 35 53.33 35.72 53.33H36.52V22.29ZM42.9199 22.29H39.16V53.33H42.9199V22.29ZM45 55.89H44.2H37.7999H37V58.53H45V55.89ZM62.52 22.29H45.4799V53.33H46.2799C47 53.33 47.56 53.89 47.56 54.61V58.53H60.4399V54.61C60.4399 53.89 61 53.33 61.72 53.33H62.52V22.29ZM68.84 22.29H65.08V53.33H68.84V22.29ZM71 55.89H70.2H63.7999H63V58.53H71V55.89ZM74.36 61.09H72.28H61.72H46.2799H35.72H20.28H9.71995H7.63995V63.81H74.36V61.09ZM79.24 66.37H75.64H6.35995H2.75995V69.09H79.24V66.37ZM76.36 15.97H5.63995C4.99995 15.97 4.51995 15.49 4.43995 14.93C4.27995 14.29 4.67995 13.73 5.23995 13.49L40.52 0.529971C40.84 0.449971 41.08 0.449971 41.4 0.529971L76.84 13.49C77.3999 13.73 77.72 14.29 77.64 14.93C77.4799 15.49 77 15.97 76.36 15.97ZM41 3.08997L12.92 13.33H69.08L41 3.08997Z" fill="#FF3C4E"/>
</svg>
