<svg width="556" height="96" viewBox="0 0 556 96" fill="none" xmlns="http://www.w3.org/2000/svg">
<path d="M187.901 42.9289V69.8812H176.66V43.7625C176.66 38.6221 174.023 35.4268 169.305 35.4268C164.309 35.4268 161.187 38.7611 161.187 45.2907V69.8812H149.876V43.7625C149.876 38.6221 147.24 35.4268 142.521 35.4268C137.734 35.4268 134.334 38.7611 134.334 45.2907V69.8812H123.093V26.1185H134.334V30.7726C136.762 27.091 140.856 24.9376 146.477 24.9376C151.889 24.9376 155.913 27.23 158.342 31.2589C161.048 27.2994 165.419 24.9376 171.387 24.9376C181.378 24.9376 187.901 32.023 187.901 42.9289Z" fill="#416CBF"/>
<path d="M237.165 26.1188L221.275 69.8814C216.765 82.4545 209.341 88.0117 198.239 87.3865V76.8974C204.414 76.9668 207.606 74.3966 209.688 68.4921L191.786 26.1188H204.137L215.378 55.5717L225.092 26.1882H237.165V26.1188Z" fill="#416CBF"/>
<path d="M289.206 48C289.206 61.0594 279.561 71.0623 267.904 71.0623C261.52 71.0623 256.871 68.7005 253.749 64.6715V69.8119H242.508V8.68311H253.749V31.3285C256.871 27.2996 261.52 24.9378 267.904 24.9378C279.63 24.9378 289.206 35.0102 289.206 48ZM277.965 48C277.965 40.6368 272.831 35.6353 265.822 35.6353C258.953 35.6353 253.749 40.6368 253.749 48C253.749 55.3633 258.884 60.2953 265.822 60.2953C272.831 60.3647 277.965 55.3633 277.965 48Z" fill="#416CBF"/>
<path d="M341.663 26.1185V69.8812H330.422V64.7408C327.3 68.7003 322.581 71.1315 316.198 71.1315C304.61 71.1315 294.965 61.0592 294.965 48.0693C294.965 35.0794 304.541 25.0071 316.198 25.0071C322.581 25.0071 327.3 27.4383 330.422 31.3978V26.1185H341.663ZM330.422 47.9998C330.422 40.6366 325.288 35.6352 318.279 35.6352C311.41 35.6352 306.206 40.6366 306.206 47.9998C306.206 55.3631 311.341 60.2951 318.279 60.2951C325.288 60.3645 330.422 55.3631 330.422 47.9998Z" fill="#416CBF"/>
<path d="M392.732 42.9984V69.8812H381.491V44.4572C381.491 38.4832 377.883 35.4268 372.818 35.4268C367.336 35.4268 363.173 38.6916 363.173 46.2632V69.8812H351.932V26.1185H363.173V31.0505C365.81 27.091 370.32 24.9376 376.218 24.9376C385.516 24.9376 392.732 31.3978 392.732 42.9984Z" fill="#416CBF"/>
<path d="M429.577 69.8814L413.617 50.0145V69.8814H402.377V8.68311H413.617V45.4299L428.674 26.1882H442.136L424.581 47.7916L442.691 69.9508H429.577V69.8814Z" fill="#416CBF"/>
<path d="M447.409 63.5599C447.409 59.4615 450.74 56.1272 454.833 56.1272C458.927 56.1272 462.258 59.4615 462.258 63.5599C462.258 67.6583 458.927 70.9926 454.833 70.9926C450.74 70.9926 447.409 67.7278 447.409 63.5599Z" fill="#416CBF"/>
<path d="M512.632 26.1185V69.8812H501.392V64.7408C498.269 68.7003 493.551 71.1315 487.167 71.1315C475.58 71.1315 465.935 61.0592 465.935 48.0693C465.935 35.0794 475.51 25.0071 487.167 25.0071C493.551 25.0071 498.269 27.4383 501.392 31.3978V26.1185H512.632ZM501.392 47.9998C501.392 40.6366 496.257 35.6352 489.249 35.6352C482.38 35.6352 477.176 40.6366 477.176 47.9998C477.176 55.3631 482.31 60.2951 489.249 60.2951C496.257 60.3645 501.392 55.3631 501.392 47.9998Z" fill="#416CBF"/>
<path d="M556 59.3228V69.8814H521.514V62.3793L539.971 36.7468H522.416V26.1188H555.167V33.6209L536.641 59.2534H556V59.3228Z" fill="#416CBF"/>
<path d="M84.3055 0H11.5877C5.20404 0 0 5.20984 0 11.6006V84.3994C0 90.7902 5.20404 96 11.5877 96H84.3055C90.6891 96 95.8932 90.7902 95.8932 84.3994V11.6006C95.8932 5.20984 90.7585 0 84.3055 0Z" fill="#FF3D4E"/>
<path d="M68.7622 32.3707V43.0683H27.1299V32.3707H68.7622Z" fill="white"/>
<path d="M68.7622 52.932V63.699H27.1299V52.932H68.7622Z" fill="white"/>
</svg>
