<?xml version="1.0" encoding="UTF-8" standalone="no"?>
<!DOCTYPE svg PUBLIC "-//W3C//DTD SVG 1.1//EN"
 "http://www.w3.org/Graphics/SVG/1.1/DTD/svg11.dtd">
<!-- Generated by graphviz version 2.40.1 (20161225.0304)
 -->
<!-- Title: dependencies Pages: 1 -->
<svg width="1864pt" height="211pt"
 viewBox="0.00 0.00 1864.00 211.00" xmlns="http://www.w3.org/2000/svg" xmlns:xlink="http://www.w3.org/1999/xlink">
<g id="graph0" class="graph" transform="scale(1 1) rotate(0) translate(4 207)">
<title>dependencies</title>
<polygon fill="#ffffff" stroke="transparent" points="-4,4 -4,-207 1860,-207 1860,4 -4,4"/>
<text text-anchor="start" x="907.0091" y="-42.4" font-family="sans-serif" font-weight="bold" font-size="14.00" fill="#000000">Legend</text>
<polygon fill="#ffffb3" stroke="transparent" points="694,-10 694,-30 714,-30 714,-10 694,-10"/>
<text text-anchor="start" x="717.629" y="-15.4" font-family="sans-serif" font-size="14.00" fill="#000000"> &#160;Declarations</text>
<polygon fill="#8dd3c7" stroke="transparent" points="807,-10 807,-30 827,-30 827,-10 807,-10"/>
<text text-anchor="start" x="830.7251" y="-15.4" font-family="sans-serif" font-size="14.00" fill="#000000"> &#160;Module</text>
<polygon fill="#80b1d3" stroke="transparent" points="893,-10 893,-30 913,-30 913,-10 893,-10"/>
<text text-anchor="start" x="916.7812" y="-15.4" font-family="sans-serif" font-size="14.00" fill="#000000"> &#160;Bootstrap</text>
<polygon fill="#fdb462" stroke="transparent" points="990,-10 990,-30 1010,-30 1010,-10 990,-10"/>
<text text-anchor="start" x="1013.6732" y="-15.4" font-family="sans-serif" font-size="14.00" fill="#000000"> &#160;Providers</text>
<polygon fill="#fb8072" stroke="transparent" points="1086,-10 1086,-30 1106,-30 1106,-10 1086,-10"/>
<text text-anchor="start" x="1109.7258" y="-15.4" font-family="sans-serif" font-size="14.00" fill="#000000"> &#160;Exports</text>
<g id="clust1" class="cluster">
<title>cluster_LandingPageModule</title>
<polygon fill="none" stroke="#000000" stroke-dasharray="1,5" points="8,-70 8,-195 1848,-195 1848,-70 8,-70"/>
</g>
<g id="clust2" class="cluster">
<title>cluster_LandingPageModule_declarations</title>
<polygon fill="none" stroke="#000000" points="334,-78 334,-130 1840,-130 1840,-78 334,-78"/>
</g>
<g id="clust12" class="cluster">
<title>cluster_LandingPageModule_imports</title>
<polygon fill="none" stroke="#000000" points="16,-78 16,-130 326,-130 326,-78 16,-78"/>
</g>
<!-- BestOffersComponent -->
<g id="node1" class="node">
<title>BestOffersComponent</title>
<polygon fill="#ffffb3" stroke="#000000" points="1831.9664,-122 1690.0336,-122 1690.0336,-86 1831.9664,-86 1831.9664,-122"/>
<text text-anchor="middle" x="1761" y="-99.8" font-family="Times,serif" font-size="14.00" fill="#000000">BestOffersComponent</text>
</g>
<!-- LandingPageModule -->
<g id="node10" class="node">
<title>LandingPageModule</title>
<polygon fill="#8dd3c7" stroke="#000000" points="984.9201,-187 981.9201,-191 960.9201,-191 957.9201,-187 851.0799,-187 851.0799,-151 984.9201,-151 984.9201,-187"/>
<text text-anchor="middle" x="918" y="-164.8" font-family="Times,serif" font-size="14.00" fill="#000000">LandingPageModule</text>
</g>
<!-- BestOffersComponent&#45;&gt;LandingPageModule -->
<g id="edge1" class="edge">
<title>BestOffersComponent&#45;&gt;LandingPageModule</title>
<path fill="none" stroke="#000000" d="M1761,-122.0908C1761,-145.1328 1761,-182 1761,-182 1761,-182 994.8534,-182 994.8534,-182"/>
<polygon fill="#000000" stroke="#000000" points="994.8535,-178.5001 984.8534,-182 994.8534,-185.5001 994.8535,-178.5001"/>
</g>
<!-- DepositOfferComponent -->
<g id="node2" class="node">
<title>DepositOfferComponent</title>
<polygon fill="#ffffb3" stroke="#000000" points="1671.6825,-122 1516.3175,-122 1516.3175,-86 1671.6825,-86 1671.6825,-122"/>
<text text-anchor="middle" x="1594" y="-99.8" font-family="Times,serif" font-size="14.00" fill="#000000">DepositOfferComponent</text>
</g>
<!-- DepositOfferComponent&#45;&gt;LandingPageModule -->
<g id="edge2" class="edge">
<title>DepositOfferComponent&#45;&gt;LandingPageModule</title>
<path fill="none" stroke="#000000" d="M1594,-122.2843C1594,-143.3211 1594,-175 1594,-175 1594,-175 994.9779,-175 994.9779,-175"/>
<polygon fill="#000000" stroke="#000000" points="994.9779,-171.5001 984.9779,-175 994.9779,-178.5001 994.9779,-171.5001"/>
</g>
<!-- DepositsComponent -->
<g id="node3" class="node">
<title>DepositsComponent</title>
<polygon fill="#ffffb3" stroke="#000000" points="1498.3244,-122 1367.6756,-122 1367.6756,-86 1498.3244,-86 1498.3244,-122"/>
<text text-anchor="middle" x="1433" y="-99.8" font-family="Times,serif" font-size="14.00" fill="#000000">DepositsComponent</text>
</g>
<!-- DepositsComponent&#45;&gt;LandingPageModule -->
<g id="edge3" class="edge">
<title>DepositsComponent&#45;&gt;LandingPageModule</title>
<path fill="none" stroke="#000000" d="M1433,-122.1061C1433,-141.3391 1433,-169 1433,-169 1433,-169 994.7993,-169 994.7993,-169"/>
<polygon fill="#000000" stroke="#000000" points="994.7993,-165.5001 984.7993,-169 994.7993,-172.5001 994.7993,-165.5001"/>
</g>
<!-- ExchangeRateComponent -->
<g id="node4" class="node">
<title>ExchangeRateComponent</title>
<polygon fill="#ffffb3" stroke="#000000" points="1350.1853,-122 1187.8147,-122 1187.8147,-86 1350.1853,-86 1350.1853,-122"/>
<text text-anchor="middle" x="1269" y="-99.8" font-family="Times,serif" font-size="14.00" fill="#000000">ExchangeRateComponent</text>
</g>
<!-- ExchangeRateComponent&#45;&gt;LandingPageModule -->
<g id="edge4" class="edge">
<title>ExchangeRateComponent&#45;&gt;LandingPageModule</title>
<path fill="none" stroke="#000000" d="M1269,-122.0225C1269,-139.3734 1269,-163 1269,-163 1269,-163 994.8466,-163 994.8466,-163"/>
<polygon fill="#000000" stroke="#000000" points="994.8466,-159.5001 984.8466,-163 994.8466,-166.5001 994.8466,-159.5001"/>
</g>
<!-- ExchangeRatesComponent -->
<g id="node5" class="node">
<title>ExchangeRatesComponent</title>
<polygon fill="#ffffb3" stroke="#000000" points="1169.6302,-122 1002.3698,-122 1002.3698,-86 1169.6302,-86 1169.6302,-122"/>
<text text-anchor="middle" x="1086" y="-99.8" font-family="Times,serif" font-size="14.00" fill="#000000">ExchangeRatesComponent</text>
</g>
<!-- ExchangeRatesComponent&#45;&gt;LandingPageModule -->
<g id="edge5" class="edge">
<title>ExchangeRatesComponent&#45;&gt;LandingPageModule</title>
<path fill="none" stroke="#000000" d="M1086,-122.2396C1086,-137.5706 1086,-157 1086,-157 1086,-157 994.8808,-157 994.8808,-157"/>
<polygon fill="#000000" stroke="#000000" points="994.8808,-153.5001 984.8808,-157 994.8807,-160.5001 994.8808,-153.5001"/>
</g>
<!-- HoldingsComponent -->
<g id="node6" class="node">
<title>HoldingsComponent</title>
<polygon fill="#ffffb3" stroke="#000000" points="984.1652,-122 851.8348,-122 851.8348,-86 984.1652,-86 984.1652,-122"/>
<text text-anchor="middle" x="918" y="-99.8" font-family="Times,serif" font-size="14.00" fill="#000000">HoldingsComponent</text>
</g>
<!-- HoldingsComponent&#45;&gt;LandingPageModule -->
<g id="edge6" class="edge">
<title>HoldingsComponent&#45;&gt;LandingPageModule</title>
<path fill="none" stroke="#000000" d="M918,-122.1061C918,-122.1061 918,-140.991 918,-140.991"/>
<polygon fill="#000000" stroke="#000000" points="914.5001,-140.9909 918,-150.991 921.5001,-140.991 914.5001,-140.9909"/>
</g>
<!-- LandingPageComponent -->
<g id="node7" class="node">
<title>LandingPageComponent</title>
<polygon fill="#ffffb3" stroke="#000000" points="833.7021,-122 678.2979,-122 678.2979,-86 833.7021,-86 833.7021,-122"/>
<text text-anchor="middle" x="756" y="-99.8" font-family="Times,serif" font-size="14.00" fill="#000000">LandingPageComponent</text>
</g>
<!-- LandingPageComponent&#45;&gt;LandingPageModule -->
<g id="edge7" class="edge">
<title>LandingPageComponent&#45;&gt;LandingPageModule</title>
<path fill="none" stroke="#000000" d="M756,-122.2396C756,-137.5706 756,-157 756,-157 756,-157 841.1731,-157 841.1731,-157"/>
<polygon fill="#000000" stroke="#000000" points="841.1731,-160.5001 851.1731,-157 841.1731,-153.5001 841.1731,-160.5001"/>
</g>
<!-- OfferedServicesComponent -->
<g id="node8" class="node">
<title>OfferedServicesComponent</title>
<polygon fill="#ffffb3" stroke="#000000" points="660.2724,-122 487.7276,-122 487.7276,-86 660.2724,-86 660.2724,-122"/>
<text text-anchor="middle" x="574" y="-99.8" font-family="Times,serif" font-size="14.00" fill="#000000">OfferedServicesComponent</text>
</g>
<!-- OfferedServicesComponent&#45;&gt;LandingPageModule -->
<g id="edge8" class="edge">
<title>OfferedServicesComponent&#45;&gt;LandingPageModule</title>
<path fill="none" stroke="#000000" d="M574,-122.0225C574,-139.3734 574,-163 574,-163 574,-163 841.2655,-163 841.2655,-163"/>
<polygon fill="#000000" stroke="#000000" points="841.2655,-166.5001 851.2655,-163 841.2654,-159.5001 841.2655,-166.5001"/>
</g>
<!-- PartnersComponent -->
<g id="node9" class="node">
<title>PartnersComponent</title>
<polygon fill="#ffffb3" stroke="#000000" points="469.7008,-122 342.2992,-122 342.2992,-86 469.7008,-86 469.7008,-122"/>
<text text-anchor="middle" x="406" y="-99.8" font-family="Times,serif" font-size="14.00" fill="#000000">PartnersComponent</text>
</g>
<!-- PartnersComponent&#45;&gt;LandingPageModule -->
<g id="edge9" class="edge">
<title>PartnersComponent&#45;&gt;LandingPageModule</title>
<path fill="none" stroke="#000000" d="M406,-122.1061C406,-141.3391 406,-169 406,-169 406,-169 841.0649,-169 841.0649,-169"/>
<polygon fill="#000000" stroke="#000000" points="841.065,-172.5001 851.0649,-169 841.0649,-165.5001 841.065,-172.5001"/>
</g>
<!-- LangingPageRoutingModule -->
<g id="node11" class="node">
<title>LangingPageRoutingModule</title>
<polygon fill="#8dd3c7" stroke="#000000" points="318.0378,-122 315.0378,-126 294.0378,-126 291.0378,-122 139.9622,-122 139.9622,-86 318.0378,-86 318.0378,-122"/>
<text text-anchor="middle" x="229" y="-99.8" font-family="Times,serif" font-size="14.00" fill="#000000">LangingPageRoutingModule</text>
</g>
<!-- LangingPageRoutingModule&#45;&gt;LandingPageModule -->
<g id="edge10" class="edge">
<title>LangingPageRoutingModule&#45;&gt;LandingPageModule</title>
<path fill="none" stroke="#000000" d="M229,-122.2843C229,-143.3211 229,-175 229,-175 229,-175 840.9958,-175 840.9958,-175"/>
<polygon fill="#000000" stroke="#000000" points="840.9959,-178.5001 850.9958,-175 840.9958,-171.5001 840.9959,-178.5001"/>
</g>
<!-- SharedModule -->
<g id="node12" class="node">
<title>SharedModule</title>
<polygon fill="#8dd3c7" stroke="#000000" points="122.4231,-122 119.4231,-126 98.4231,-126 95.4231,-122 23.5769,-122 23.5769,-86 122.4231,-86 122.4231,-122"/>
<text text-anchor="middle" x="73" y="-99.8" font-family="Times,serif" font-size="14.00" fill="#000000">SharedModule</text>
</g>
<!-- SharedModule&#45;&gt;LandingPageModule -->
<g id="edge11" class="edge">
<title>SharedModule&#45;&gt;LandingPageModule</title>
<path fill="none" stroke="#000000" d="M73,-122.0908C73,-145.1328 73,-182 73,-182 73,-182 840.988,-182 840.988,-182"/>
<polygon fill="#000000" stroke="#000000" points="840.988,-185.5001 850.988,-182 840.9879,-178.5001 840.988,-185.5001"/>
</g>
</g>
</svg>
